# xmcd CD database file
#
# Track frame offsets:
#	150
#	14595
#	39823
#	63123
#	77678
#	92548
#	110970
#	127125
#	140878
#	149683
#	161633
#	182610
#	206028
#	218260
#
# Disc length: 3098 seconds
#
# Revision: 0
# Processed by: cddbd v1.5.1PL2 Copyright (c) Steve Scherf et al.
# Submitted via: CDex 1.51
#
DISCID=cb0c180e
DTITLE=DUCK ELLINGTON - DUCK ELLINGTON
DYEAR=1900
DGENRE=Jazz
TTITLE0=IT DON'T MEAN A THING
TTITLE1=THE MOOCHE
TTITLE2=MOOD INDIGO
TTITLE3=IN A SENTIMENTAL MOOD
TTITLE4=PERDIDO
TTITLE5=CREOLE LOVE CALL
TTITLE6=SOLITUDO
TTITLE7=SOPHISTICATED LADY
TTITLE8=DO NOTHIN' TILL YOU HEAR FROM ME
TTITLE9=I GOT IT BAD(AND THAT AIN'T GOOD)
TTITLE10=TAKE THE "A"TRAIN
TTITLE11=BLACK AND TAN FANTASY
TTITLE12=CARAVAN
TTITLE13=THE TWICH
EXTD=
EXTT0=
EXTT1=
EXTT2=
EXTT3=
EXTT4=
EXTT5=
EXTT6=
EXTT7=
EXTT8=
EXTT9=
EXTT10=
EXTT11=
EXTT12=
EXTT13=
PLAYORDER=
